<svg width="22" height="20" viewBox="0 0 22 20" fill="none" xmlns="http://www.w3.org/2000/svg">
<path d="M6 10H16M17 5H17.009M5.8 16C5.8 16 6.6 17.875 5 19M16.2 16C16.2 16 15.4 17.875 17 19M11 16V19M15 1C17.339 1 18.508 1 19.362 1.536C19.8075 1.81584 20.1842 2.19251 20.464 2.638C21 3.492 21 4.66 21 7C21 9.34 21 10.508 20.463 11.362C20.1836 11.8069 19.8077 12.1832 19.363 12.463C18.507 13 17.338 13 15 13H7C4.661 13 3.492 13 2.638 12.463C2.19273 12.1837 1.81608 11.8078 1.536 11.363C1 10.507 1 9.338 1 7C1 4.662 1 3.492 1.536 2.638C1.81584 2.19251 2.19251 1.81584 2.638 1.536C3.492 1 4.66 1 7 1H15Z" stroke="#3E3E3E" stroke-width="1.5" stroke-linecap="round" stroke-linejoin="round"/>
</svg>
