<svg width="45" height="45" viewBox="0 0 45 45" fill="none" xmlns="http://www.w3.org/2000/svg">
<g id="vuesax/bold/buildings-2">
<g id="buildings-2">
<path id="Vector" d="M19.875 7.78125C19.875 8.1375 19.575 8.4375 19.2187 8.4375H17.1C13.05 8.4375 9.75 11.7375 9.75 15.7875V33.0937C9.75 33.45 9.45 33.75 9.09375 33.75H7.78125C5.55 33.75 3.75 31.95 3.75 29.7188V7.78125C3.75 5.55 5.55 3.75 7.78125 3.75H15.8437C18.075 3.75 19.875 5.55 19.875 7.78125Z" fill="white"/>
<path id="Vector_2" d="M41.25 7.78125V29.7188C41.25 31.95 39.45 33.75 37.2188 33.75H36.0375C35.6812 33.75 35.3813 33.45 35.3813 33.0937V15.7875C35.3813 11.7375 32.0813 8.4375 28.0313 8.4375H25.7813C25.425 8.4375 25.125 8.1375 25.125 7.78125C25.125 5.55 26.925 3.75 29.1563 3.75H37.2188C39.45 3.75 41.25 5.55 41.25 7.78125Z" fill="white"/>
<path id="Vector_3" d="M28.0312 11.25H17.1C14.5875 11.25 12.5625 13.275 12.5625 15.7875V36.7125C12.5625 39.225 14.5875 41.25 17.1 41.25H20.1562C20.6812 41.25 21.0938 40.8375 21.0938 40.3125V35.625C21.0938 34.8562 21.7312 34.2187 22.5 34.2187C23.2687 34.2187 23.9062 34.8562 23.9062 35.625V40.3125C23.9062 40.8375 24.3187 41.25 24.8438 41.25H28.05C30.5437 41.25 32.5688 39.225 32.5688 36.7312V15.7875C32.5688 13.275 30.5437 11.25 28.0312 11.25ZM26.25 27.6562H18.75C17.9812 27.6562 17.3438 27.0187 17.3438 26.25C17.3438 25.4812 17.9812 24.8437 18.75 24.8437H26.25C27.0187 24.8437 27.6562 25.4812 27.6562 26.25C27.6562 27.0187 27.0187 27.6562 26.25 27.6562ZM26.25 22.0312H18.75C17.9812 22.0312 17.3438 21.3937 17.3438 20.625C17.3438 19.8562 17.9812 19.2187 18.75 19.2187H26.25C27.0187 19.2187 27.6562 19.8562 27.6562 20.625C27.6562 21.3937 27.0187 22.0312 26.25 22.0312Z" fill="url(#paint0_linear_1_467)"/>
</g>
</g>
<defs>
<linearGradient id="paint0_linear_1_467" x1="22.5656" y1="11.25" x2="22.5656" y2="41.25" gradientUnits="userSpaceOnUse">
<stop stop-color="#ECA060"/>
<stop offset="1" stop-color="#B68256"/>
</linearGradient>
</defs>
</svg>
