<svg width="18" height="18" viewBox="0 0 18 18" fill="none" xmlns="http://www.w3.org/2000/svg">
<path d="M2 17.5C1.858 17.5 1.739 17.4523 1.643 17.357C1.547 17.2617 1.49933 17.1427 1.5 17V15.885H1.308C1.09867 15.8423 0.911667 15.754 0.747 15.62C0.582333 15.4867 0.5 15.3057 0.5 15.077V12.384C0.5 12.242 0.547667 12.1233 0.643 12.028C0.739 11.932 0.858 11.884 1 11.884H2.5V4.00001C2.5 3.02801 2.84033 2.20167 3.521 1.52101C4.20167 0.84034 5.028 0.500007 6 0.500007C6.972 0.500007 7.79833 0.84034 8.479 1.52101C9.15967 2.20167 9.5 3.02801 9.5 4.00001V14C9.5 14.704 9.74067 15.2967 10.222 15.778C10.7033 16.2593 11.296 16.5 12 16.5C12.704 16.5 13.2967 16.2593 13.778 15.778C14.2593 15.2967 14.5 14.704 14.5 14V6.11601H13C12.858 6.11601 12.739 6.06801 12.643 5.97201C12.5477 5.87667 12.5 5.75801 12.5 5.61601V2.92301C12.5 2.69501 12.5823 2.51401 12.747 2.38001C12.9117 2.24601 13.0983 2.15767 13.307 2.11501H13.5V1.00001C13.5 0.858007 13.5477 0.739007 13.643 0.643007C13.7383 0.547007 13.8573 0.49934 14 0.500007H16C16.1427 0.500007 16.2617 0.547673 16.357 0.643007C16.4523 0.73834 16.5 0.85734 16.5 1.00001V2.11601H16.692C16.9013 2.15801 17.0883 2.24601 17.253 2.38001C17.4177 2.51334 17.5 2.69434 17.5 2.92301V5.61601C17.5 5.75801 17.4523 5.87667 17.357 5.97201C17.2617 6.06801 17.1427 6.11601 17 6.11601H15.5V14C15.5 14.972 15.1597 15.7983 14.479 16.479C13.7983 17.1597 12.972 17.5 12 17.5C11.028 17.5 10.2017 17.1597 9.521 16.479C8.84033 15.7983 8.5 14.972 8.5 14V4.00001C8.5 3.29601 8.25933 2.70334 7.778 2.22201C7.29667 1.74067 6.704 1.50001 6 1.50001C5.296 1.50001 4.70333 1.74067 4.222 2.22201C3.74067 2.70334 3.5 3.29601 3.5 4.00001V11.885H5C5.14267 11.885 5.26167 11.9327 5.357 12.028C5.45233 12.1233 5.5 12.242 5.5 12.384V15.077C5.5 15.305 5.41767 15.486 5.253 15.62C5.08833 15.754 4.90167 15.842 4.693 15.884H4.5V17C4.5 17.1427 4.45233 17.2617 4.357 17.357C4.26167 17.4523 4.14267 17.5 4 17.5H2Z" fill="#3E3E3E"/>
</svg>
