<svg width="32" height="32" viewBox="0 0 32 32" fill="none" xmlns="http://www.w3.org/2000/svg">
<circle cx="16" cy="16" r="15" fill="#0053A0" stroke="white" stroke-width="2"/>
<path d="M12.5995 10.6053C12.3386 10.0297 12.0639 10.0181 11.8157 10.008C11.6125 9.99936 11.3802 10 11.1481 10C10.9158 10 10.5384 10.0867 10.2193 10.4324C9.89994 10.7784 9 11.6145 9 13.315C9 15.0156 10.2483 16.659 10.4223 16.8899C10.5965 17.1203 12.8322 20.7216 16.3729 22.1071C19.3155 23.2584 19.9143 23.0295 20.553 22.9717C21.1917 22.9142 22.614 22.1358 22.9042 21.3287C23.1946 20.5217 23.1946 19.83 23.1075 19.6854C23.0205 19.5414 22.7881 19.4549 22.4398 19.2821C22.0913 19.1092 20.3787 18.273 20.0595 18.1577C19.7401 18.0424 19.5079 17.9849 19.2756 18.331C19.0433 18.6765 18.3762 19.4549 18.1728 19.6854C17.9697 19.9165 17.7664 19.9452 17.4182 19.7723C17.0696 19.5989 15.9477 19.2344 14.6167 18.057C13.5812 17.1408 12.882 16.0094 12.6788 15.6633C12.4756 15.3177 12.6571 15.1304 12.8317 14.9582C12.9883 14.8033 13.1802 14.5546 13.3545 14.3528C13.5282 14.151 13.5862 14.0069 13.7024 13.7764C13.8186 13.5457 13.7604 13.3438 13.6735 13.171C13.5862 12.9981 12.9093 11.2887 12.5995 10.6053Z" fill="white"/>
</svg>
