<svg width="14" height="21" viewBox="0 0 14 21" fill="none" xmlns="http://www.w3.org/2000/svg">
<path d="M12.7102 18.3999L12.7032 18.3819V1.52495C12.7096 1.51152 12.7129 1.49683 12.7129 1.48195C12.7129 1.46707 12.7096 1.45238 12.7032 1.43895C12.6954 1.42507 12.6841 1.41351 12.6704 1.40542C12.6567 1.39734 12.6411 1.39304 12.6252 1.39295H7.99119C7.96467 1.39295 7.93923 1.40348 7.92048 1.42224C7.90172 1.44099 7.89119 1.46643 7.89119 1.49295V18.4049C7.89135 18.418 7.89406 18.4309 7.89919 18.4429C7.90388 18.4625 7.91501 18.48 7.93078 18.4925C7.94655 18.505 7.96606 18.5118 7.98619 18.5119H12.6112C12.6232 18.5121 12.6351 18.5098 12.6462 18.5053C12.6573 18.5008 12.6674 18.4941 12.6758 18.4856C12.6843 18.4771 12.691 18.467 12.6955 18.4559C12.7001 18.4448 12.7023 18.4329 12.7022 18.4209L12.7102 18.3999ZM12.5102 18.3419L8.09319 18.3269V9.12695H8.82319V8.90395H8.09319V1.58495L12.5102 1.59995V18.3419ZM13.4882 0.552949H7.20719V19.3779H13.4872L13.4882 0.552949ZM12.8702 18.7609H7.61719V1.17095H12.8742L12.8702 18.7609ZM0.747188 19.3779H7.07219V0.552949H0.747188V19.3779ZM1.36419 1.16995H6.62219V18.7609H1.36419V1.16995ZM13.9922 19.3979V0.0229492H0.242188V20.0229H13.9922V19.3979ZM13.5792 19.4689H0.656188V0.461949H13.5792V19.4689ZM6.33919 18.4069L6.33219 18.3889V1.52995C6.3389 1.51625 6.34239 1.5012 6.34239 1.48595C6.34239 1.4707 6.3389 1.45565 6.33219 1.44195C6.32428 1.42826 6.31291 1.41689 6.29922 1.40899C6.28553 1.40109 6.27 1.39694 6.25419 1.39695H1.62419C1.59872 1.39848 1.5748 1.40969 1.55732 1.42828C1.53985 1.44687 1.53014 1.47144 1.53019 1.49695V18.4089C1.53035 18.422 1.53306 18.4349 1.53819 18.4469C1.54269 18.4667 1.55373 18.4844 1.56952 18.4971C1.58531 18.5098 1.60492 18.5168 1.62519 18.5169H6.25019C6.26218 18.517 6.27405 18.5146 6.2851 18.5099C6.29615 18.5053 6.30616 18.4985 6.31455 18.4899C6.32293 18.4813 6.32952 18.4712 6.33392 18.46C6.33832 18.4489 6.34045 18.4369 6.34019 18.4249L6.33919 18.4069ZM6.13919 8.83995V8.93095H5.41219V9.15395H6.13919V18.3539L1.71719 18.3339V1.58795L6.13419 1.60295L6.13919 8.83995Z" fill="#3E3E3E"/>
</svg>
