<svg width="14" height="13" viewBox="0 0 14 13" fill="none" xmlns="http://www.w3.org/2000/svg">
<path d="M13.5621 7.43761C13.4107 6.87203 13.129 6.34976 12.7395 5.91263C12.3499 5.4755 11.8635 5.13564 11.319 4.92028C10.7746 4.70492 10.1873 4.62004 9.60414 4.67243C9.021 4.72482 8.45822 4.91303 7.96088 5.22198L8.98525 1.13198C9.01066 1.03037 9.00352 0.923335 8.96483 0.825997C8.92614 0.728658 8.85786 0.645927 8.76963 0.589483C8.34437 0.320954 7.86944 0.140713 7.3731 0.059485C6.87676 -0.0217434 6.36915 -0.00229941 5.88048 0.11666C5.3918 0.23562 4.93205 0.451664 4.52858 0.751937C4.12511 1.05221 3.78617 1.43058 3.53191 1.86452C3.27766 2.29846 3.1133 2.77912 3.0486 3.27788C2.98391 3.77665 3.02021 4.28333 3.15533 4.76778C3.29046 5.25223 3.52166 5.70455 3.83517 6.09783C4.14868 6.4911 4.5381 6.81729 4.98025 7.05698L0.925876 8.21511C0.825151 8.24379 0.735977 8.30338 0.670937 8.38547C0.605896 8.46756 0.568273 8.56799 0.563376 8.67261C0.524896 9.5263 0.779148 10.3675 1.28403 11.057C1.78892 11.7465 2.51414 12.2428 3.33963 12.4639C3.65801 12.5494 3.98621 12.5928 4.31588 12.5932C4.81822 12.5919 5.3152 12.4898 5.77736 12.2929C6.23952 12.096 6.65747 11.8084 7.00645 11.447C7.35544 11.0857 7.62835 10.658 7.80904 10.1893C7.98973 9.72055 8.07452 9.22032 8.05838 8.71823L11.0884 11.6507C11.1637 11.7236 11.2601 11.771 11.3638 11.7861C11.4676 11.8013 11.5735 11.7834 11.6665 11.7351C12.4246 11.3417 13.0258 10.7014 13.3705 9.91991C13.7152 9.13844 13.7828 8.26272 13.5621 7.43761ZM5.99963 7.00011C5.99963 6.80233 6.05828 6.60899 6.16816 6.44454C6.27804 6.28009 6.43422 6.15192 6.61694 6.07623C6.79967 6.00054 7.00074 5.98074 7.19472 6.01932C7.3887 6.05791 7.56688 6.15315 7.70673 6.293C7.84659 6.43285 7.94183 6.61104 7.98041 6.80502C8.019 6.999 7.99919 7.20007 7.92351 7.38279C7.84782 7.56552 7.71965 7.7217 7.5552 7.83158C7.39075 7.94146 7.19741 8.00011 6.99963 8.00011C6.73441 8.00011 6.48006 7.89475 6.29252 7.70721C6.10498 7.51968 5.99963 7.26532 5.99963 7.00011ZM3.99963 3.75011C3.99947 3.28673 4.1164 2.83082 4.33957 2.42473C4.56275 2.01863 4.88491 1.67551 5.27616 1.42723C5.66742 1.17895 6.11506 1.03356 6.57753 1.00456C7.04 0.975562 7.5023 1.0639 7.9215 1.26136L6.98525 5.00011C6.62701 5.0028 6.27606 5.10166 5.9691 5.28637C5.66213 5.47107 5.41041 5.73484 5.24025 6.05011C4.85832 5.80034 4.5448 5.45915 4.32815 5.0575C4.1115 4.65585 3.99858 4.20646 3.99963 3.75011ZM5.68713 11.2232C5.28592 11.4551 4.83264 11.5817 4.36938 11.5915C3.90612 11.6013 3.4479 11.4939 3.03726 11.2792C2.62663 11.0645 2.27689 10.7496 2.02053 10.3636C1.76417 9.97761 1.6095 9.53311 1.57088 9.07136L5.27775 8.01261C5.45399 8.31283 5.70555 8.56185 6.00754 8.73504C6.30953 8.90824 6.6515 8.9996 6.99963 9.00011H7.0565C7.03134 9.45537 6.89292 9.89714 6.65379 10.2854C6.41467 10.6736 6.08239 10.996 5.68713 11.2232ZM12.3228 9.78573C12.1205 10.1367 11.843 10.4385 11.5103 10.6695L8.74025 7.98886C8.91751 7.67752 9.00762 7.32419 9.00114 6.96599C8.99465 6.60778 8.89179 6.25795 8.70338 5.95323C9.23223 5.68626 9.83316 5.5972 10.4167 5.69932C11.0003 5.80145 11.5353 6.08929 11.942 6.52C12.3488 6.95071 12.6056 7.50126 12.6742 8.0897C12.7428 8.67814 12.6195 9.273 12.3228 9.78573Z" fill="#3E3E3E"/>
</svg>
