<svg width="20" height="20" viewBox="0 0 20 20" fill="none" xmlns="http://www.w3.org/2000/svg">
<path d="M1.89829 5.53705C1.54924 5.10479 1.37246 4.55868 1.402 4.00387C1.43154 3.44906 1.66531 2.9248 2.05829 2.53205L2.39529 2.19505C2.78111 1.80911 3.29406 1.57655 3.8386 1.54068C4.38314 1.50481 4.92216 1.66807 5.35529 2.00005C6.75354 1.19049 8.33911 0.760445 9.9548 0.752552C11.5705 0.744659 13.1602 1.15919 14.5663 1.95505C14.9998 1.64516 15.5292 1.4992 16.0603 1.54315C16.5914 1.5871 17.0896 1.81811 17.4663 2.19505L17.8033 2.53205C18.5933 3.32205 18.6733 4.55205 18.0433 5.43205C18.8398 6.83822 19.2549 8.42819 19.2474 10.0443C19.2398 11.6604 18.8099 13.2464 18.0003 14.6451C18.3297 15.0782 18.491 15.6161 18.4542 16.1591C18.4174 16.702 18.1851 17.2133 17.8003 17.5981L17.4623 17.9361C17.0705 18.3278 16.548 18.5613 15.9948 18.5918C15.4416 18.6222 14.8967 18.4475 14.4643 18.1011C13.0824 18.8604 11.5296 19.2547 9.95282 19.2466C8.37604 19.2386 6.82738 18.8285 5.45329 18.0551C5.02283 18.4238 4.46905 18.6165 3.90267 18.5946C3.33628 18.5727 2.79902 18.3379 2.39829 17.9371L2.06029 17.6001C1.65958 17.1992 1.42492 16.6619 1.40323 16.0955C1.38154 15.5291 1.57441 14.9754 1.94329 14.5451C1.17057 13.1712 0.760919 11.6231 0.753045 10.0469C0.745171 8.47069 1.13933 6.91852 1.89829 5.53705ZM3.04929 13.4291L5.98729 10.4911C5.95206 10.2057 5.9477 9.91735 5.97429 9.63105L3.00629 6.66305C2.50283 7.7213 2.24528 8.87972 2.2529 10.0516C2.26052 11.2235 2.53311 12.3784 3.05029 13.4301M6.57029 16.9501C7.62201 17.4679 8.77726 17.741 9.94951 17.7489C11.1218 17.7569 12.2806 17.4995 13.3393 16.9961L10.3673 14.0241C10.0813 14.0506 9.79332 14.0462 9.50829 14.0111L6.57029 16.9501ZM11.9843 13.5201L15.3423 16.8781C15.4829 17.0185 15.6735 17.0974 15.8723 17.0974C16.071 17.0974 16.2617 17.0185 16.4023 16.8781L16.7403 16.5401C16.8807 16.3994 16.9596 16.2088 16.9596 16.0101C16.9596 15.8113 16.8807 15.6207 16.7403 15.4801L13.4173 12.1561C13.0594 12.7219 12.5671 13.1905 11.9843 13.5201ZM13.9923 10.6101L16.9053 13.5231C17.4524 12.4471 17.7414 11.2584 17.7492 10.0514C17.757 8.8443 17.4835 7.65201 16.9503 6.56905L14.0083 9.51105C14.0535 9.87638 14.0482 10.2462 13.9923 10.6101ZM13.4683 7.93005L16.7443 4.65505C16.8847 4.51443 16.9636 4.3238 16.9636 4.12505C16.9636 3.9263 16.8847 3.73568 16.7443 3.59505L16.4063 3.25605C16.2657 3.1156 16.075 3.03671 15.8763 3.03671C15.6775 3.03671 15.4869 3.1156 15.3463 3.25605L12.0703 6.53205C12.6446 6.87541 13.1249 7.35572 13.4683 7.93005ZM10.4883 5.99105L13.4303 3.05105C12.3478 2.51868 11.1562 2.24567 9.94986 2.25366C8.74354 2.26164 7.55566 2.5504 6.48029 3.09705L9.39029 6.00705C9.75429 5.95205 10.1243 5.94705 10.4893 5.99105M7.84529 6.58305L4.51629 3.25505C4.37566 3.1146 4.18504 3.03571 3.98629 3.03571C3.78754 3.03571 3.59691 3.1146 3.45629 3.25505L3.11829 3.59305C2.97784 3.73368 2.89895 3.9243 2.89895 4.12305C2.89895 4.3218 2.97784 4.51243 3.11829 4.65305L6.47829 8.01405C6.80758 7.43097 7.27664 6.93888 7.84329 6.58205M6.52829 12.0721L3.12029 15.4791C2.97984 15.6197 2.90095 15.8103 2.90095 16.0091C2.90095 16.2078 2.97984 16.3984 3.12029 16.5391L3.45829 16.8771C3.59891 17.0175 3.78953 17.0964 3.98829 17.0964C4.18704 17.0964 4.37766 17.0175 4.51829 16.8771L7.92729 13.4701C7.35221 13.1269 6.87146 12.6471 6.52829 12.0721ZM8.20229 8.20305C7.95929 8.43724 7.76541 8.7175 7.63195 9.02746C7.49849 9.33742 7.42814 9.67087 7.425 10.0083C7.42186 10.3458 7.486 10.6805 7.61368 10.9929C7.74135 11.3053 7.92999 11.5891 8.16859 11.8277C8.40718 12.0664 8.69095 12.2551 9.0033 12.3829C9.31565 12.5106 9.65034 12.5749 9.98779 12.5718C10.3253 12.5688 10.6587 12.4985 10.9687 12.3652C11.2787 12.2318 11.559 12.038 11.7933 11.7951C12.2553 11.3159 12.5108 10.6746 12.5048 10.009C12.4988 9.34347 12.2318 8.70685 11.7612 8.23614C11.2906 7.76543 10.6541 7.49824 9.9885 7.49205C9.32294 7.48586 8.68154 7.74117 8.20229 8.20305Z" fill="#3E3E3E"/>
</svg>
