<svg width="49" height="49" viewBox="0 0 49 49" fill="none" xmlns="http://www.w3.org/2000/svg">
<rect width="49" height="49" fill="#1E1E1E"/>
<g id="Kochi" clip-path="url(#clip0_0_1)">
<rect width="1440" height="5844" transform="translate(-152 -1738)" fill="#F3FFF8"/>
<rect id="BG" x="-102" y="-57" width="1340" height="196" rx="10" fill="#161E37"/>
<g id="Group 1261155785">
<g id="Group 1261155784">
<g id="vuesax/bold/profile-2user">
<g id="vuesax/bold/profile-2user_2">
<g id="profile-2user">
<path id="Vector" d="M9.67676 13.7812C9.67676 8.98429 13.5778 5.08325 18.3747 5.08325C23.1709 5.08325 27.0715 8.98324 27.0726 13.7792C27.0533 18.4854 23.382 22.2853 18.7037 22.4587H18.7037H18.7036H18.7036H18.7035H18.7034H18.7034H18.7033H18.7033H18.7032H18.7031H18.7031H18.703H18.703H18.7029H18.7028H18.7028H18.7027H18.7027H18.7026H18.7025H18.7025H18.7024H18.7024H18.7023H18.7022H18.7022H18.7021H18.7021H18.702H18.7019H18.7019H18.7018H18.7018H18.7017H18.7016H18.7016H18.7015H18.7015H18.7014H18.7013H18.7013H18.7012H18.7012H18.7011H18.701H18.701H18.7009H18.7009H18.7008H18.7007H18.7007H18.7006H18.7006H18.7005H18.7004H18.7004H18.7003H18.7003H18.7002H18.7001H18.7001H18.7H18.7H18.6999H18.6998H18.6998H18.6997H18.6997H18.6996H18.6995H18.6995H18.6994H18.6994H18.6993H18.6992H18.6992H18.6991H18.699H18.699H18.6989H18.6989H18.6988H18.6987H18.6987H18.6986H18.6986H18.6985H18.6984H18.6984H18.6983H18.6982H18.6982H18.6981H18.6981H18.698H18.6979H18.6979H18.6978H18.6977H18.6977H18.6976H18.6976H18.6975H18.6974H18.6974H18.6973H18.6972H18.6972H18.6971H18.697H18.697H18.6969H18.6969H18.6968H18.6967H18.6967H18.6966H18.6965H18.6965H18.6964H18.6963H18.6963H18.6962H18.6961H18.6961H18.696H18.6959H18.6959H18.6958H18.6957H18.6957H18.6956H18.6955H18.6955H18.6954H18.6953H18.6953H18.6952H18.6951H18.6951H18.695H18.6949H18.6948H18.6948H18.6947H18.6946H18.6946H18.6945H18.6944H18.6944H18.6943H18.6942H18.6941H18.6941H18.694H18.6939H18.6939H18.6938H18.6937H18.6936H18.6936H18.6935H18.6934H18.6933H18.6933H18.6932H18.6931H18.693H18.693H18.6929H18.6928H18.6927H18.6927H18.6926H18.6925H18.6924H18.6924H18.6923H18.6922H18.6921H18.6921H18.692H18.6919H18.6918H18.6917H18.6917H18.6916H18.6915H18.6914H18.6913H18.6913H18.6912H18.6911H18.691H18.6909H18.6909H18.6908H18.6907H18.6906H18.6905H18.6904H18.6904H18.6903H18.6902H18.6901H18.69H18.6899H18.6898H18.6898H18.6897H18.6896H18.6895H18.6894H18.6893H18.6892H18.6892H18.6891H18.689H18.6889H18.6888H18.6887H18.6886H18.6885H18.6884H18.6883H18.6883H18.6882H18.6881H18.688H18.6879H18.6878H18.6877H18.6876H18.6875H18.6874H18.6873H18.6872H18.6871H18.687H18.6869H18.6868H18.6867H18.6867H18.6866H18.6865H18.6864H18.6863H18.6862H18.6861H18.686H18.6859H18.6858H18.6857H18.6856H18.6855H18.6854H18.6853H18.6851H18.685H18.6849H18.6848H18.6847H18.6846H18.6845H18.6844H18.6843H18.6842H18.6841H18.684H18.6839H18.6838H18.6837H18.6836H18.6834H18.6833H18.6832H18.6831H18.683H18.6829H18.6828H18.6827H18.6826H18.6824H18.6823H18.6822H18.6821H18.682H18.6819H18.6817H18.6816H18.6815H18.6814H18.6813H18.6812H18.681H18.6809H18.6807H18.6804H18.6802H18.68H18.6797H18.6795H18.6793H18.679H18.6788H18.6786H18.6783H18.6781H18.6779H18.6776H18.6774H18.6772H18.6769H18.6767H18.6765H18.6762H18.676H18.6758H18.6755H18.6753H18.6751H18.6749H18.6746H18.6744H18.6742H18.6739H18.6737H18.6735H18.6733H18.673H18.6728H18.6726H18.6724H18.6722H18.6719H18.6717H18.6715H18.6713H18.671H18.6708H18.6706H18.6704H18.6702H18.6699H18.6697H18.6695H18.6693H18.6691H18.6689H18.6686H18.6684H18.6682H18.668H18.6678H18.6676H18.6673H18.6671H18.6669H18.6667H18.6665H18.6663H18.6661H18.6658H18.6656H18.6654H18.6652H18.665H18.6648H18.6646H18.6644H18.6642H18.664H18.6637H18.6635H18.6633H18.6631H18.6629H18.6627H18.6625H18.6623H18.6621H18.6619H18.6617H18.6615H18.6613H18.6611H18.6609H18.6607H18.6604H18.6602H18.66H18.6598H18.6596H18.6594H18.6592H18.659H18.6588H18.6586H18.6584H18.6582H18.658H18.6578H18.6576H18.6574H18.6572H18.657H18.6568H18.6566H18.6564H18.6562H18.656H18.6558H18.6556H18.6554H18.6552H18.6551H18.6549H18.6547H18.6545H18.6543H18.6541H18.6539H18.6537H18.6535H18.6533H18.6531H18.6529H18.6527H18.6525H18.6523H18.6521H18.6519H18.6517H18.6516H18.6514H18.6512H18.651H18.6508H18.6506H18.6504H18.6502H18.65H18.6498H18.6496H18.6495H18.6493H18.6491H18.6489H18.6487H18.6485H18.6483H18.6481H18.6479H18.6478H18.6476H18.6474H18.6472H18.647H18.6468H18.6466H18.6466C18.4627 22.4373 18.2711 22.4398 18.0946 22.4566C13.3112 22.2571 9.67676 18.4597 9.67676 13.7812Z" fill="url(#paint0_linear_0_1)" stroke="white" stroke-width="2"/>
<path id="Vector_2" d="M8.56106 41.2077L8.55832 41.2059C6.18792 39.6256 5.00195 37.579 5.00195 35.4842C5.00195 33.3887 6.18865 31.3221 8.57816 29.7221C11.2498 27.9544 14.8029 27.0415 18.4008 27.0415C22 27.0415 25.5423 27.955 28.1922 29.7217C30.5555 31.2972 31.73 33.3433 31.7486 35.4475C31.7471 37.5621 30.5601 39.6082 28.1887 41.2083C25.5287 42.994 21.9775 43.9167 18.3753 43.9167C14.7727 43.9167 11.2212 42.9938 8.56106 41.2077Z" fill="url(#paint1_linear_0_1)" stroke="white" stroke-width="2"/>
<path id="Vector_3" d="M30.346 21.0992C32.1311 19.0644 33.1014 16.3264 32.8669 13.3954L32.867 13.3954L32.8664 13.389C32.746 11.9961 32.351 10.6966 31.7535 9.53104C32.145 9.41982 32.5577 9.34334 32.9785 9.30587C36.4296 9.00714 39.5156 11.5802 39.8161 15.0697C40.0967 18.4813 37.6888 21.4558 34.36 21.8872H34.3201C34.3149 21.8872 34.3083 21.8871 34.3005 21.887C34.2246 21.8862 34.0301 21.8841 33.8128 21.9341C32.5307 21.9806 31.3437 21.6747 30.346 21.0992Z" stroke="#E4E4E4" stroke-width="2"/>
<path id="Vector_4" d="M43.9002 33.7779L43.9001 33.7779L43.8992 33.7891C43.7702 35.3538 42.7706 36.8078 40.8627 37.8535L40.8614 37.8542C39.5807 38.5586 38.0471 39.0173 36.4281 39.2155C37.1225 38.1342 37.5467 36.9358 37.6636 35.6789L37.6637 35.6789L37.6647 35.6666C37.9016 32.7293 36.4871 30.001 33.8854 27.9065L33.8855 27.9065L33.8787 27.9011C33.2528 27.406 32.5852 26.9566 31.8833 26.5525C35.41 26.3242 39.1441 27.2869 41.6137 29.2799L41.6149 29.2809C43.3081 30.6428 44.0444 32.2395 43.9002 33.7779Z" stroke="#E4E4E4" stroke-width="2"/>
</g>
</g>
</g>
</g>
</g>
</g>
<defs>
<linearGradient id="paint0_linear_0_1" x1="18.3747" y1="4.08325" x2="18.3747" y2="23.4587" gradientUnits="userSpaceOnUse">
<stop stop-color="#FFAB64"/>
<stop offset="1" stop-color="#9C7451"/>
</linearGradient>
<linearGradient id="paint1_linear_0_1" x1="18.3753" y1="26.0415" x2="18.3753" y2="44.9167" gradientUnits="userSpaceOnUse">
<stop stop-color="#FFAB64"/>
<stop offset="1" stop-color="#9C7451"/>
</linearGradient>
<clipPath id="clip0_0_1">
<rect width="1440" height="5844" fill="white" transform="translate(-152 -1738)"/>
</clipPath>
</defs>
</svg>
