<svg width="18" height="15" viewBox="0 0 18 15" fill="none" xmlns="http://www.w3.org/2000/svg">
<path d="M16.5427 13.2732C16.6777 13.3388 16.8666 13.3825 17.0285 13.3825C17.5682 13.3825 18 13.0328 18 12.5956C18 12.2896 17.7841 12.0055 17.4603 11.8743C17.4603 11.3934 16.9475 11 16.3538 11C15.7601 11 15.2744 11.3934 15.2474 11.8743C14.9235 12.0055 14.7076 12.2896 14.7076 12.5956C14.7076 13.0328 15.1394 13.3825 15.6792 13.3825C15.8411 13.3825 16.003 13.3388 16.1649 13.2732V14.4317H1.83508V13.2732C1.97001 13.3388 2.15892 13.3825 2.32084 13.3825C2.86057 13.3825 3.29235 13.0328 3.29235 12.5956C3.29235 12.2896 3.07646 12.0055 2.75262 11.8743C2.75262 11.3934 2.26687 11 1.64618 11C1.05247 11 0.566717 11.3934 0.53973 11.8743C0.215892 12.0055 0 12.2896 0 12.5956C0 13.0328 0.431784 13.3825 0.971514 13.3825C1.13343 13.3825 1.32234 13.3388 1.45727 13.2732V14.4317H0.269865V15H17.7571V14.4317H16.5697V13.2732H16.5427Z" fill="white"/>
<path d="M8.00553 12.2505C8.00553 11.7012 8.45077 11.256 9 11.256C9.54923 11.256 9.99448 11.7012 9.99448 12.2505V13C9.99448 13.5523 10.4422 14 10.9945 14H13C13.5523 14 14 13.5523 14 13V1C14 0.447716 13.5523 0 13 0H5C4.44772 0 4 0.447715 4 1V13C4 13.5523 4.44772 14 5 14H7.00553C7.55781 14 8.00553 13.5523 8.00553 13V12.2505ZM11.0166 2.29854C11.0166 1.83322 11.3938 1.456 11.8591 1.456C12.3244 1.456 12.7017 1.83322 12.7017 2.29854V2.32146C12.7017 2.78678 12.3244 3.164 11.8591 3.164C11.3938 3.164 11.0166 2.78678 11.0166 2.32146V2.29854ZM11.0166 5.21054C11.0166 4.74522 11.3938 4.368 11.8591 4.368C12.3244 4.368 12.7017 4.74522 12.7017 5.21054V5.23346C12.7017 5.69878 12.3244 6.076 11.8591 6.076C11.3938 6.076 11.0166 5.69878 11.0166 5.23346V5.21054ZM11.0166 8.12254C11.0166 7.65722 11.3938 7.28 11.8591 7.28C12.3244 7.28 12.7017 7.65722 12.7017 8.12254V8.14545C12.7017 8.61078 12.3244 8.988 11.8591 8.988C11.3938 8.988 11.0166 8.61078 11.0166 8.14545V8.12254ZM8.14365 2.29854C8.14365 1.83322 8.52087 1.456 8.98619 1.456C9.45151 1.456 9.82873 1.83322 9.82873 2.29854V2.32146C9.82873 2.78678 9.45151 3.164 8.98619 3.164C8.52087 3.164 8.14365 2.78678 8.14365 2.32146V2.29854ZM8.14365 5.21054C8.14365 4.74522 8.52087 4.368 8.98619 4.368C9.45151 4.368 9.82873 4.74522 9.82873 5.21054V5.23346C9.82873 5.69878 9.45151 6.076 8.98619 6.076C8.52087 6.076 8.14365 5.69878 8.14365 5.23346V5.21054ZM8.14365 8.12254C8.14365 7.65722 8.52087 7.28 8.98619 7.28C9.45151 7.28 9.82873 7.65722 9.82873 8.12254V8.14546C9.82873 8.61078 9.45151 8.988 8.98619 8.988C8.52087 8.988 8.14365 8.61078 8.14365 8.14546V8.12254ZM6.9558 8.13127C6.9558 8.58896 6.58477 8.96 6.12707 8.96C5.66938 8.96 5.29834 8.58896 5.29834 8.13127V8.08073C5.29834 7.62303 5.66938 7.252 6.12707 7.252C6.58477 7.252 6.9558 7.62303 6.9558 8.08073V8.13127ZM6.9558 5.24727C6.9558 5.70496 6.58477 6.076 6.12707 6.076C5.66938 6.076 5.29834 5.70496 5.29834 5.24727V5.19673C5.29834 4.73903 5.66938 4.368 6.12707 4.368C6.58477 4.368 6.9558 4.73903 6.9558 5.19673V5.24727ZM6.9558 2.33527C6.9558 2.79297 6.58477 3.164 6.12707 3.164C5.66938 3.164 5.29834 2.79297 5.29834 2.33527V2.28473C5.29834 1.82703 5.66938 1.456 6.12707 1.456C6.58477 1.456 6.9558 1.82703 6.9558 2.28473V2.33527Z" fill="white"/>
</svg>
