<svg width="18" height="20" viewBox="0 0 18 20" fill="none" xmlns="http://www.w3.org/2000/svg">
<path d="M13.5 3.5H14.5C15.605 3.5 16.5 3.895 16.5 5V7C16.5 7.53043 16.2893 8.03914 15.9142 8.41421C15.5391 8.78929 15.0304 9 14.5 9H7.5C7.23478 9 6.98043 9.10536 6.79289 9.29289C6.60536 9.48043 6.5 9.73478 6.5 10V18C6.5 18.2652 6.60536 18.5196 6.79289 18.7071C6.98043 18.8946 7.23478 19 7.5 19H8.5M13.5 3.5V2C13.5 1.73478 13.3946 1.48043 13.2071 1.29289C13.0196 1.10536 12.7652 1 12.5 1H2.5C2.23478 1 1.98043 1.10536 1.79289 1.29289C1.60536 1.48043 1.5 1.73478 1.5 2V5C1.5 5.26522 1.60536 5.51957 1.79289 5.70711C1.98043 5.89464 2.23478 6 2.5 6H12.5C12.7652 6 13.0196 5.89464 13.2071 5.70711C13.3946 5.51957 13.5 5.26522 13.5 5V3.5Z" stroke="#3E3E3E" stroke-width="1.5" stroke-linecap="round" stroke-linejoin="round"/>
</svg>
