<svg width="58" height="58" viewBox="0 0 58 58" fill="none" xmlns="http://www.w3.org/2000/svg">
<path d="M43.1476 22.419L43.1578 22.4209L43.168 22.4226L49.3296 23.4374C49.3297 23.4374 49.3299 23.4375 49.3301 23.4375C51.1267 23.7352 51.8893 24.4725 52.0931 25.109C52.2975 25.7474 52.1052 26.7986 50.8144 28.1011C50.8139 28.1016 50.8134 28.1021 50.8129 28.1026L46.0067 32.9087C45.4578 33.4577 45.0728 34.2149 44.8581 34.9663C44.6432 35.7186 44.5681 36.5729 44.7492 37.3473C44.7492 37.3475 44.7493 37.3477 44.7493 37.3479L46.1263 43.2907L46.1264 43.291C46.6496 45.5467 46.1819 46.6099 45.6889 46.97C45.1963 47.3299 44.0426 47.4521 42.0544 46.2662L42.0529 46.2653L36.2837 42.8376C36.2825 42.8369 36.2814 42.8362 36.2802 42.8355C35.5661 42.4049 34.6813 42.2221 33.8572 42.2221C33.033 42.2221 32.1482 42.4049 31.4341 42.8355C31.433 42.8362 31.4318 42.8369 31.4306 42.8376L25.6636 46.264C25.6632 46.2642 25.6629 46.2644 25.6625 46.2646C23.674 47.4388 22.5182 47.3195 22.0238 46.9598C21.5328 46.6026 21.0646 45.5472 21.588 43.291L21.588 43.2907L22.9655 37.3457L22.9703 37.3251L22.9742 37.3043C23.1184 36.5351 23.0326 35.6895 22.8118 34.938C22.5919 34.1895 22.2082 33.4335 21.6593 32.8846L16.8501 28.0754C15.5603 26.7856 15.3686 25.7407 15.5729 25.103C15.7775 24.4638 16.5432 23.722 18.339 23.4128L24.4962 22.3987C24.4965 22.3986 24.4968 22.3986 24.4972 22.3985C25.2168 22.2811 25.9311 21.9236 26.5153 21.489C27.0982 21.0554 27.644 20.4763 27.9628 19.8247L31.3659 13.0186C31.3663 13.0179 31.3666 13.0171 31.367 13.0164C32.2249 11.324 33.1715 10.8131 33.8305 10.8147C34.4904 10.8163 35.4394 11.3331 36.2983 13.0392C36.2985 13.0396 36.2987 13.04 36.2989 13.0404L39.7032 19.8489C40.0237 20.5041 40.5725 21.0776 41.1539 21.5065C41.7387 21.9379 42.4444 22.2881 43.1476 22.419Z" fill="url(#paint0_linear_1_429)" stroke="white" stroke-width="2"/>
<path d="M19.333 13.8958H4.83301C3.84217 13.8958 3.02051 13.0741 3.02051 12.0833C3.02051 11.0924 3.84217 10.2708 4.83301 10.2708H19.333C20.3238 10.2708 21.1455 11.0924 21.1455 12.0833C21.1455 13.0741 20.3238 13.8958 19.333 13.8958Z" fill="white"/>
<path d="M12.083 47.7292H4.83301C3.84217 47.7292 3.02051 46.9076 3.02051 45.9167C3.02051 44.9259 3.84217 44.1042 4.83301 44.1042H12.083C13.0738 44.1042 13.8955 44.9259 13.8955 45.9167C13.8955 46.9076 13.0738 47.7292 12.083 47.7292Z" fill="white"/>
<path d="M7.24967 30.8125H4.83301C3.84217 30.8125 3.02051 29.9908 3.02051 29C3.02051 28.0092 3.84217 27.1875 4.83301 27.1875H7.24967C8.24051 27.1875 9.06217 28.0092 9.06217 29C9.06217 29.9908 8.24051 30.8125 7.24967 30.8125Z" fill="white"/>
<defs>
<linearGradient id="paint0_linear_1_429" x1="33.833" y1="9.8147" x2="33.833" y2="48.2213" gradientUnits="userSpaceOnUse">
<stop stop-color="#E89E60"/>
<stop offset="1" stop-color="#B58156"/>
</linearGradient>
</defs>
</svg>
