<svg width="14" height="14" viewBox="0 0 14 14" fill="none" xmlns="http://www.w3.org/2000/svg">
<path d="M10.75 2.75H1.25C0.973437 2.75 0.75 2.97344 0.75 3.25V12.75C0.75 13.0266 0.973437 13.25 1.25 13.25H10.75C11.0266 13.25 11.25 13.0266 11.25 12.75V3.25C11.25 2.97344 11.0266 2.75 10.75 2.75ZM10.125 12.125H1.875V3.875H10.125V12.125ZM12.75 0.75H3.125C3.05625 0.75 3 0.80625 3 0.875V1.75C3 1.81875 3.05625 1.875 3.125 1.875H12.125V10.875C12.125 10.9438 12.1812 11 12.25 11H13.125C13.1938 11 13.25 10.9438 13.25 10.875V1.25C13.25 0.973437 13.0266 0.75 12.75 0.75ZM3.6875 7.59375H8.3125V8.59375H3.6875V7.59375Z" fill="#3E3E3E"/>
</svg>
