<svg width="281" height="281" viewBox="0 0 281 281" fill="none" xmlns="http://www.w3.org/2000/svg">
<path d="M51.5459 1.33811C29.9881 6.79829 23.9976 12.625 20.2321 26.159C16.4667 39.693 32.6496 261.418 32.6496 261.418H262.104C276.372 253.802 280.75 242.456 281 207.46C273.916 137.233 265.272 97.2024 252.386 26.159C245.888 16.3101 244.476 9.73396 218.912 8.8923C218.912 8.8923 73.1036 -4.12208 51.5459 1.33811Z" fill="#16CC70"/>
<path d="M0.966874 218.662C0.966874 218.662 19.3271 50.7741 25.1031 37.0758C30.8791 23.3775 42.2796 13.5639 53.1012 10.0311C63.9227 6.49828 207.463 1.33814 223.986 1.33813C240.508 1.33813 262.422 22.6165 263.569 37.0758C264.716 51.535 268.169 162.595 267.914 210.452C267.143 231.715 264.084 240.606 245.708 248.604C227.333 256.602 66.3305 282.747 41.5158 279.995C16.701 277.243 -4.88188 253.161 0.966874 218.662Z" fill="#0F2D89"/>
</svg>
