<svg width="17" height="24" viewBox="0 0 17 24" fill="none" xmlns="http://www.w3.org/2000/svg">
<path fill-rule="evenodd" clip-rule="evenodd" d="M8.94011 24C8.65248 24 8.3647 24 8.07706 24C5.56475 23.8182 3.54692 22.7016 2.27618 21.3123C0.956616 19.8699 -0.175445 17.8143 0.0226144 15.1356C0.139749 13.5536 0.781867 11.9743 1.41313 10.6563C3.28685 6.7433 6.00294 2.98993 8.5566 0C11.3379 3.7032 14.5986 7.59557 16.3236 12.4479C16.8062 13.8061 17.1338 15.3072 16.9465 16.7388C16.7689 18.0966 16.2132 19.3654 15.5083 20.3695C14.1156 22.3536 11.996 23.7318 8.94011 24ZM4.76899 9.10012C3.7743 10.8049 2.56264 12.5226 2.27633 14.6167C2.2429 14.8614 2.22809 15.0651 2.22809 15.2766C2.22809 18.1208 3.70628 20.0996 5.77571 21.171C5.82966 21.1659 5.85063 21.2395 5.87203 21.171C5.84256 21.1681 5.81485 21.1638 5.82394 21.1235C5.41874 19.6846 4.92821 18.3206 4.81708 16.6912C4.65362 14.2923 5.39337 12.0906 5.96776 10.0432C6.5527 7.95732 7.35344 6.02325 7.64562 4.00786C6.84033 5.65775 5.80532 7.32465 4.76899 9.10012Z" fill="#16CC70"/>
</svg>
