<svg width="30" height="30" viewBox="0 0 16 16" fill="none" xmlns="http://www.w3.org/2000/svg">
<path d="M8.01078 16C6.60728 16 5.23616 15.6329 4.01619 14.9311L0.896087 16L1.53306 12.6963C0.529015 11.3144 0 9.69499 0 7.99999C0 3.58434 3.59514 0 7.99999 0C12.4156 0 16 3.59514 16 7.99999C16.0108 12.4156 12.4264 16 8.01078 16Z" fill="#32BA46"/>
<path d="M8.01057 13.2254C7.0929 13.2254 6.19681 12.9879 5.39789 12.5237L3.35741 13.2254L3.77846 11.0662C3.11989 10.1701 2.77441 9.11208 2.77441 7.98928C2.77441 5.10669 5.11719 2.76392 7.99978 2.76392C10.8824 2.76392 13.2251 5.10669 13.2251 7.98928C13.2359 10.8827 10.8932 13.2254 8.01057 13.2254ZM5.49506 11.6708L5.657 11.7679C6.36955 12.2106 7.17927 12.4481 8.01057 12.4481C10.4613 12.4481 12.4586 10.4508 12.4586 8.00007C12.4586 5.54934 10.4613 3.55204 8.01057 3.55204C5.55983 3.55204 3.56254 5.54934 3.56254 8.00007C3.56254 8.99333 3.88642 9.94339 4.5126 10.7315L4.62057 10.8719L4.39384 12.0487L5.49506 11.6708Z" fill="white"/>
<path d="M5.36517 5.99171C5.36517 5.99171 5.66747 5.4519 5.92658 5.41951C6.17489 5.38712 6.49877 5.38712 6.58514 5.54907C6.67151 5.71101 7.06018 6.66108 7.06018 6.66108C7.06018 6.66108 7.12495 6.82302 7.02779 6.98496C6.93062 7.14691 6.69311 7.37362 6.69311 7.37362C6.69311 7.37362 6.56355 7.53557 6.69311 7.70831C6.82266 7.88105 7.01699 8.20493 7.42725 8.61519C7.8375 9.02544 8.62563 9.31694 8.62563 9.31694C8.62563 9.31694 8.73359 9.32774 8.80916 9.26296C8.88474 9.18739 9.2734 8.70156 9.2734 8.70156C9.2734 8.70156 9.40295 8.53961 9.60808 8.63678C9.81321 8.73395 10.7093 9.17659 10.7093 9.17659C10.7093 9.17659 10.8173 9.21978 10.8173 9.37092C10.8173 9.53287 10.7525 9.92153 10.6229 10.0511C10.4934 10.1806 10.1047 10.5909 9.53251 10.5909C8.96031 10.5909 7.58919 10.1267 6.85505 9.39251C6.12091 8.65837 5.47314 7.92423 5.32199 7.24407C5.16005 6.57471 5.18164 6.27241 5.36517 5.99171Z" fill="white"/>
</svg>
